<svg xmlns="http://www.w3.org/2000/svg" xmlns:xlink="http://www.w3.org/1999/xlink" width="433" zoomAndPan="magnify" viewBox="0 0 324.75 72" height="96" preserveAspectRatio="xMidYMid meet" version="1.0"><defs><clipPath id="b27fcb39e2"><path d="M 291 25 L 323.75 25 L 323.75 57 L 291 57 Z M 291 25 " clip-rule="nonzero"/></clipPath></defs><path fill="#4ca154" d="M 42.472656 11.667969 C 44.269531 9.863281 47.183594 9.863281 48.980469 11.667969 L 70.066406 32.84375 C 71.863281 34.648438 71.863281 37.574219 70.066406 39.378906 L 48.980469 60.554688 C 47.183594 62.359375 44.269531 62.359375 42.472656 60.554688 L 21.386719 39.378906 C 19.589844 37.574219 19.589844 34.648438 21.386719 32.84375 Z M 42.472656 11.667969 " fill-opacity="1" fill-rule="nonzero"/><path fill="#2a4dd0" d="M 23.621094 11.667969 C 25.421875 9.863281 28.332031 9.863281 30.132812 11.667969 L 51.214844 32.84375 C 53.015625 34.648438 53.015625 37.574219 51.214844 39.378906 L 30.132812 60.554688 C 28.332031 62.359375 25.421875 62.359375 23.621094 60.554688 L 2.535156 39.378906 C 0.738281 37.574219 0.738281 34.648438 2.535156 32.84375 Z M 23.621094 11.667969 " fill-opacity="1" fill-rule="nonzero"/><path fill="#223344" d="M 127.605469 49.53125 L 113.136719 49.53125 L 110.816406 56.410156 L 100.929688 56.410156 L 114.957031 17.476562 L 125.890625 17.476562 L 139.917969 56.410156 L 129.921875 56.410156 Z M 125.175781 42.210938 L 120.371094 27.960938 L 115.621094 42.210938 Z M 125.175781 42.210938 " fill-opacity="1" fill-rule="nonzero"/><path fill="#223344" d="M 143.636719 15.371094 L 153.078125 15.371094 L 153.078125 56.410156 L 143.636719 56.410156 Z M 143.636719 15.371094 " fill-opacity="1" fill-rule="nonzero"/><path fill="#223344" d="M 157.492188 40.882812 C 157.492188 37.703125 158.082031 34.910156 159.257812 32.507812 C 160.472656 30.105469 162.113281 28.253906 164.175781 26.960938 C 166.234375 25.667969 168.535156 25.019531 171.078125 25.019531 C 173.25 25.019531 175.144531 25.464844 176.765625 26.351562 C 178.421875 27.238281 179.691406 28.402344 180.574219 29.84375 L 180.574219 25.464844 L 190.019531 25.464844 L 190.019531 56.410156 L 180.574219 56.410156 L 180.574219 52.027344 C 179.65625 53.46875 178.367188 54.632812 176.710938 55.523438 C 175.089844 56.410156 173.195312 56.851562 171.023438 56.851562 C 168.519531 56.851562 166.234375 56.207031 164.175781 54.910156 C 162.113281 53.582031 160.472656 51.714844 159.257812 49.308594 C 158.082031 46.871094 157.492188 44.058594 157.492188 40.882812 Z M 180.574219 40.9375 C 180.574219 38.570312 179.914062 36.703125 178.585938 35.335938 C 177.300781 33.96875 175.714844 33.285156 173.839844 33.285156 C 171.960938 33.285156 170.359375 33.96875 169.035156 35.335938 C 167.746094 36.667969 167.101562 38.515625 167.101562 40.882812 C 167.101562 43.246094 167.746094 45.132812 169.035156 46.539062 C 170.359375 47.90625 171.960938 48.589844 173.839844 48.589844 C 175.714844 48.589844 177.300781 47.90625 178.585938 46.539062 C 179.914062 45.167969 180.574219 43.300781 180.574219 40.9375 Z M 180.574219 40.9375 " fill-opacity="1" fill-rule="nonzero"/><path fill="#223344" d="M 205.742188 30.621094 C 206.847656 28.921875 208.226562 27.589844 209.882812 26.628906 C 211.539062 25.628906 213.378906 25.132812 215.40625 25.132812 L 215.40625 35.167969 L 212.808594 35.167969 C 210.453125 35.167969 208.6875 35.6875 207.507812 36.722656 C 206.332031 37.71875 205.742188 39.496094 205.742188 42.046875 L 205.742188 56.410156 L 196.296875 56.410156 L 196.296875 25.464844 L 205.742188 25.464844 Z M 205.742188 30.621094 " fill-opacity="1" fill-rule="nonzero"/><path fill="#223344" d="M 217.488281 40.882812 C 217.488281 37.703125 218.078125 34.910156 219.257812 32.507812 C 220.472656 30.105469 222.109375 28.253906 224.171875 26.960938 C 226.234375 25.667969 228.535156 25.019531 231.074219 25.019531 C 233.246094 25.019531 235.144531 25.464844 236.761719 26.351562 C 238.417969 27.238281 239.691406 28.402344 240.574219 29.84375 L 240.574219 25.464844 L 250.015625 25.464844 L 250.015625 56.410156 L 240.574219 56.410156 L 240.574219 52.027344 C 239.652344 53.46875 238.363281 54.632812 236.707031 55.523438 C 235.085938 56.410156 233.191406 56.851562 231.019531 56.851562 C 228.515625 56.851562 226.234375 56.207031 224.171875 54.910156 C 222.109375 53.582031 220.472656 51.714844 219.257812 49.308594 C 218.078125 46.871094 217.488281 44.058594 217.488281 40.882812 Z M 240.574219 40.9375 C 240.574219 38.570312 239.910156 36.703125 238.585938 35.335938 C 237.296875 33.96875 235.714844 33.285156 233.835938 33.285156 C 231.957031 33.285156 230.355469 33.96875 229.03125 35.335938 C 227.742188 36.667969 227.097656 38.515625 227.097656 40.882812 C 227.097656 43.246094 227.742188 45.132812 229.03125 46.539062 C 230.355469 47.90625 231.957031 48.589844 233.835938 48.589844 C 235.714844 48.589844 237.296875 47.90625 238.585938 46.539062 C 239.910156 45.167969 240.574219 43.300781 240.574219 40.9375 Z M 240.574219 40.9375 " fill-opacity="1" fill-rule="nonzero"/><path fill="#223344" d="M 254.417969 40.882812 C 254.417969 37.703125 255.007812 34.910156 256.183594 32.507812 C 257.398438 30.105469 259.039062 28.253906 261.101562 26.960938 C 263.160156 25.667969 265.460938 25.019531 268.003906 25.019531 C 270.027344 25.019531 271.867188 25.445312 273.523438 26.296875 C 275.21875 27.144531 276.542969 28.292969 277.5 29.734375 L 277.5 15.371094 L 286.945312 15.371094 L 286.945312 56.410156 L 277.5 56.410156 L 277.5 51.972656 C 276.617188 53.453125 275.347656 54.632812 273.691406 55.523438 C 272.070312 56.410156 270.175781 56.851562 268.003906 56.851562 C 265.460938 56.851562 263.160156 56.207031 261.101562 54.910156 C 259.039062 53.582031 257.398438 51.714844 256.183594 49.308594 C 255.007812 46.871094 254.417969 44.058594 254.417969 40.882812 Z M 277.5 40.9375 C 277.5 38.570312 276.839844 36.703125 275.511719 35.335938 C 274.226562 33.96875 272.640625 33.285156 270.765625 33.285156 C 268.886719 33.285156 267.285156 33.96875 265.960938 35.335938 C 264.671875 36.667969 264.027344 38.515625 264.027344 40.882812 C 264.027344 43.246094 264.671875 45.132812 265.960938 46.539062 C 267.285156 47.90625 268.886719 48.589844 270.765625 48.589844 C 272.640625 48.589844 274.226562 47.90625 275.511719 46.539062 C 276.839844 45.167969 277.5 43.300781 277.5 40.9375 Z M 277.5 40.9375 " fill-opacity="1" fill-rule="nonzero"/><g clip-path="url(#b27fcb39e2)"><path fill="#223344" d="M 307.25 56.851562 C 304.230469 56.851562 301.507812 56.207031 299.078125 54.910156 C 296.683594 53.617188 294.789062 51.769531 293.390625 49.367188 C 292.027344 46.960938 291.347656 44.152344 291.347656 40.9375 C 291.347656 37.757812 292.046875 34.964844 293.445312 32.5625 C 294.84375 30.121094 296.757812 28.253906 299.1875 26.960938 C 301.617188 25.667969 304.34375 25.019531 307.359375 25.019531 C 310.378906 25.019531 313.105469 25.667969 315.535156 26.960938 C 317.964844 28.253906 319.878906 30.121094 321.277344 32.5625 C 322.675781 34.964844 323.375 37.757812 323.375 40.9375 C 323.375 44.117188 322.65625 46.925781 321.222656 49.367188 C 319.824219 51.769531 317.890625 53.617188 315.421875 54.910156 C 312.992188 56.207031 310.269531 56.851562 307.25 56.851562 Z M 307.25 48.644531 C 309.054688 48.644531 310.582031 47.980469 311.835938 46.648438 C 313.121094 45.316406 313.765625 43.414062 313.765625 40.9375 C 313.765625 38.460938 313.140625 36.554688 311.890625 35.222656 C 310.675781 33.894531 309.164062 33.226562 307.359375 33.226562 C 305.519531 33.226562 303.992188 33.894531 302.777344 35.222656 C 301.5625 36.519531 300.957031 38.421875 300.957031 40.9375 C 300.957031 43.414062 301.542969 45.316406 302.722656 46.648438 C 303.9375 47.980469 305.445312 48.644531 307.25 48.644531 Z M 307.25 48.644531 " fill-opacity="1" fill-rule="nonzero"/></g></svg>